<svg xmlns="http://www.w3.org/2000/svg" width="200" height="54">
  <path fill="#000" fill-rule="evenodd" d="M33.22 50V36.67c0-.68-.05-1.35-.14-1.98-.1-.65-.28-1.2-.54-1.65-.26-.46-.62-.83-1.06-1.1-.44-.28-1.02-.42-1.74-.42-.68 0-1.28.14-1.78.44s-.94.68-1.28 1.17c-.34.5-.6 1.06-.76 1.7-.16.63-.24 1.3-.24 1.98V50h-8.04V36.08c0-1.4-.28-2.5-.83-3.33-.55-.8-1.43-1.22-2.64-1.22-1.27 0-2.26.5-2.96 1.52-.7 1-1.06 2.25-1.06 3.72V50H2.06V25.6h7.8v3.38h.1c.28-.52.65-1.03 1.1-1.52.43-.5.96-.92 1.58-1.3.62-.37 1.32-.68 2.1-.9.75-.23 1.6-.35 2.5-.35 1.77 0 3.27.37 4.5 1.1 1.22.7 2.17 1.74 2.86 3.08.82-1.28 1.86-2.3 3.14-3.04 1.27-.75 2.82-1.13 4.65-1.13 1.66 0 3.05.3 4.18.92 1.13.6 2.03 1.4 2.72 2.35.7.96 1.18 2.04 1.5 3.23.3 1.2.46 2.36.46 3.5V50h-8.04zM69.9 37.7c0 2-.36 3.8-1.08 5.42-.72 1.6-1.7 2.98-2.94 4.1-1.24 1.14-2.68 2-4.3 2.63-1.65.62-3.4.93-5.26.93-1.83 0-3.56-.3-5.2-.93-1.66-.62-3.1-1.5-4.33-2.62-1.23-1.13-2.2-2.5-2.92-4.1-.72-1.63-1.08-3.44-1.08-5.43 0-2 .36-3.8 1.08-5.4.72-1.6 1.7-2.95 2.9-4.06 1.24-1.1 2.68-1.96 4.33-2.54 1.66-.6 3.4-.9 5.22-.9 1.87 0 3.6.3 5.25.9 1.63.58 3.07 1.43 4.3 2.54 1.25 1.1 2.23 2.47 2.95 4.07.72 1.6 1.08 3.4 1.08 5.4zm-7.75 0c0-.78-.13-1.55-.4-2.3-.25-.75-.62-1.4-1.1-2-.5-.56-1.1-1.02-1.83-1.38-.72-.36-1.55-.54-2.5-.54-.94 0-1.78.18-2.5.54-.7.36-1.3.82-1.78 1.4-.48.57-.84 1.23-1.08 1.98-.25.75-.37 1.52-.37 2.3 0 .8.1 1.55.36 2.3.24.76.6 1.43 1.1 2.04.5.6 1.1 1.08 1.8 1.44.73.36 1.57.54 2.5.54.96 0 1.8-.18 2.5-.54.73-.36 1.33-.84 1.83-1.44.48-.6.84-1.28 1.1-2.04.23-.75.35-1.5.35-2.3zM87.7 50V36.67c0-.68-.05-1.34-.17-1.96-.1-.6-.3-1.16-.56-1.63-.26-.47-.63-.85-1.1-1.13-.48-.27-1.07-.4-1.8-.4-.7 0-1.34.13-1.88.4-.55.28-1 .66-1.35 1.16-.36.5-.63 1.05-.8 1.7-.2.62-.28 1.28-.28 1.97V50h-8.1V25.6h7.8v3.38h.1c.3-.52.68-1.04 1.15-1.54.48-.5 1.03-.94 1.67-1.3.63-.36 1.32-.66 2.07-.9.75-.2 1.55-.33 2.4-.33 1.64 0 3.02.3 4.17.9 1.14.58 2.06 1.34 2.77 2.27.7.93 1.22 2 1.53 3.2.3 1.22.46 2.43.46 3.64V50h-8.1zm36.73-12.3c0 2-.36 3.8-1.08 5.42-.72 1.6-1.7 2.98-2.94 4.1-1.23 1.14-2.67 2-4.3 2.63-1.63.62-3.38.93-5.24.93-1.83 0-3.57-.3-5.22-.93-1.65-.62-3.1-1.5-4.3-2.62-1.24-1.13-2.2-2.5-2.93-4.1-.7-1.63-1.07-3.44-1.07-5.43 0-2 .36-3.8 1.08-5.4.73-1.6 1.7-2.95 2.93-4.06 1.22-1.1 2.66-1.96 4.3-2.54 1.66-.6 3.4-.9 5.23-.9 1.86 0 3.6.3 5.24.9 1.63.58 3.07 1.43 4.3 2.54 1.25 1.1 2.23 2.47 2.95 4.07.72 1.6 1.08 3.4 1.08 5.4zm-7.74 0c0-.78-.14-1.55-.4-2.3-.27-.75-.64-1.4-1.13-2-.5-.56-1.1-1.02-1.8-1.38-.73-.36-1.57-.54-2.5-.54-.96 0-1.8.18-2.5.54-.73.36-1.33.82-1.8 1.4-.48.57-.83 1.23-1.08 1.98-.25.75-.38 1.52-.38 2.3 0 .8.13 1.55.37 2.3.24.76.6 1.43 1.1 2.04.48.6 1.1 1.08 1.8 1.44.72.36 1.56.54 2.5.54.95 0 1.8-.18 2.5-.54.72-.36 1.33-.84 1.82-1.44.5-.6.85-1.28 1.1-2.04.24-.75.37-1.5.37-2.3zm9.6 12.3V12.96h8.15V50h-8.14zm18.85-24.4h4.38v-6.42h7.9v6.42h5.73v6.02h-5.74v9.32c0 1.14.22 2 .66 2.57.45.58 1.24.87 2.38.87.4 0 .8-.04 1.25-.1.45-.07.82-.17 1.1-.3l.1 5.88c-.54.2-1.25.37-2.1.52-.85.14-1.7.22-2.54.22-1.64 0-3-.22-4.12-.62-1.1-.4-2-1-2.67-1.77-.67-.76-1.15-1.67-1.45-2.73-.3-1.06-.44-2.25-.44-3.55v-10.3h-3.94V50h-8.03V25.6h7.55zm1.08-7.8c0 .63-.12 1.2-.37 1.75-.24.54-.57 1-.98 1.4-.4.4-.9.7-1.47.92-.56.23-1.16.35-1.78.35-1.3 0-2.4-.44-3.28-1.3-.88-.87-1.32-1.9-1.32-3.1 0-.6.1-1.16.34-1.7.23-.54.56-1 .98-1.4.42-.4.9-.7 1.47-.96.57-.24 1.17-.36 1.82-.36.62 0 1.22.1 1.8.34.56.23 1.05.54 1.46.93.4.4.74.86.98 1.4.25.54.37 1.12.37 1.74zm34.2 17.2c0-1.27-.4-2.36-1.2-3.28-.8-.9-2-1.37-3.6-1.37-.8 0-1.5.12-2.16.37-.66.24-1.23.58-1.72 1-.5.43-.88.93-1.17 1.5-.3.57-.46 1.17-.5 1.8h10.35zm7.4 3.1v.97c0 .33-.02.64-.05.93h-17.7c.07.7.28 1.3.62 1.87.34.55.78 1.03 1.32 1.44.54.42 1.15.74 1.82.97.67.23 1.36.34 2.08.34 1.27 0 2.35-.23 3.23-.7.88-.47 1.6-1.1 2.16-1.84l5.6 3.53c-1.15 1.66-2.66 2.94-4.54 3.84-1.88.9-4.06 1.34-6.54 1.34-1.83 0-3.56-.28-5.2-.85-1.63-.58-3.06-1.4-4.28-2.5-1.23-1.1-2.2-2.44-2.9-4.05-.7-1.6-1.05-3.42-1.05-5.48 0-2 .34-3.8 1.02-5.42.7-1.6 1.62-3 2.8-4.1 1.17-1.14 2.56-2 4.16-2.63 1.6-.63 3.33-.94 5.2-.94 1.8 0 3.44.32 4.94.92 1.5.6 2.8 1.48 3.87 2.62 1.07 1.15 1.9 2.53 2.52 4.17.6 1.64.9 3.5.9 5.6zm10.85 7.6c0 1.36-.5 2.5-1.45 3.42-.96.9-2.1 1.37-3.45 1.37-.7 0-1.34-.13-1.94-.38-.6-.24-1.13-.58-1.6-1-.45-.43-.8-.92-1.07-1.5-.26-.57-.4-1.2-.4-1.88 0-.66.14-1.28.4-1.87.26-.58.62-1.1 1.08-1.54.46-.44 1-.8 1.6-1.05.6-.26 1.24-.4 1.93-.4 1.34 0 2.5.46 3.45 1.38.96.9 1.45 2.06 1.45 3.43z"/>
</svg>
